HIERARCHY
ROOT Hips
{
 OFFSET 0.000000 0.000000 0.000000
 CHANNELS 6 Xposition Yposition Zposition Yrotation Xrotation Zrotation
 JOINT Chest
 {
  OFFSET 0.000000 9.585900 0.002600
  CHANNELS 3 Yrotation Xrotation Zrotation
  JOINT Chest2
  {
   OFFSET 0.000000 9.601200 -0.005300
   CHANNELS 3 Yrotation Xrotation Zrotation
   JOINT Chest3
   {
    OFFSET 0.000000 9.561800 0.000000
    CHANNELS 3 Yrotation Xrotation Zrotation
    JOINT Chest4
    {
     OFFSET 0.000000 9.552100 0.000000
     CHANNELS 3 Yrotation Xrotation Zrotation
     JOINT Neck
     {
      OFFSET 0.000000 14.453000 0.000000
      CHANNELS 3 Yrotation Xrotation Zrotation
      JOINT Head
      {
       OFFSET 0.000000 8.936500 -0.011300
       CHANNELS 3 Yrotation Xrotation Zrotation
       End Site
       {
        OFFSET 0.000000 17.073600 -0.006000
       }
      }
     }
     JOINT RightCollar
     {
      OFFSET -2.921100 9.558500 0.000000
      CHANNELS 3 Yrotation Xrotation Zrotation
      JOINT RightShoulder
      {
       OFFSET -13.519700 0.000000 0.000000
       CHANNELS 3 Yrotation Xrotation Zrotation
       JOINT RightElbow
       {
        OFFSET 0.000000 -29.696600 0.000000
        CHANNELS 3 Yrotation Xrotation Zrotation
        JOINT RightWrist
        {
         OFFSET 0.000000 -24.004700 0.000000
         CHANNELS 3 Yrotation Xrotation Zrotation
         End Site
         {
          OFFSET 0.000000 -17.728500 0.000000
         }
        }
       }
      }
     }
     JOINT LeftCollar
     {
      OFFSET 2.921100 9.558500 0.000000
      CHANNELS 3 Yrotation Xrotation Zrotation
      JOINT LeftShoulder
      {
       OFFSET 13.519700 0.000000 0.000000
       CHANNELS 3 Yrotation Xrotation Zrotation
       JOINT LeftElbow
       {
        OFFSET 0.000000 -29.696600 0.000000
        CHANNELS 3 Yrotation Xrotation Zrotation
        JOINT LeftWrist
        {
         OFFSET 0.000000 -24.004700 0.000000
         CHANNELS 3 Yrotation Xrotation Zrotation
         End Site
         {
          OFFSET 0.000000 -17.728500 0.000000
         }
        }
       }
      }
     }
    }
   }
  }
 }
 JOINT RightHip
 {
  OFFSET -7.771700 -0.012900 -0.001300
  CHANNELS 3 Yrotation Xrotation Zrotation
  JOINT RightKnee
  {
   OFFSET 0.000000 -40.869800 0.001200
   CHANNELS 3 Yrotation Xrotation Zrotation
   JOINT RightAnkle
   {
    OFFSET 0.000000 -39.717900 0.002100
    CHANNELS 3 Yrotation Xrotation Zrotation
    JOINT RightToe
    {
     OFFSET 0.000000 -4.965400 11.033500
     CHANNELS 3 Yrotation Xrotation Zrotation
     End Site
     {
      OFFSET 0.000000 -1.423100 5.872300
     }
    }
   }
  }
 }
 JOINT LeftHip
 {
  OFFSET 7.771700 -0.012900 -0.001300
  CHANNELS 3 Yrotation Xrotation Zrotation
  JOINT LeftKnee
  {
   OFFSET 0.000000 -40.869800 0.001200
   CHANNELS 3 Yrotation Xrotation Zrotation
   JOINT LeftAnkle
   {
    OFFSET 0.000000 -39.717900 0.002100
    CHANNELS 3 Yrotation Xrotation Zrotation
    JOINT LeftToe
    {
     OFFSET 0.000000 -4.965400 11.033500
     CHANNELS 3 Yrotation Xrotation Zrotation
     End Site
     {
      OFFSET 0.000000 -1.423100 5.872300
     }
    }
   }
  }
 }
}
MOTION
Frames: 7
Frame Time: 0.008333
0.000000 85.388000 0.000000 0.000000 -5.767877 0.000000 0.000000 11.653817 0.000000 0.000000 -5.885947 0.000000 0.000000 -0.000000 0.000000 0.000000 -0.000000 0.000000 0.000000 12.528835 0.000000 0.000000 0.711642 0.000000 0.000000 -0.000000 0.000000 0.000000 0.000000 -90.000000 0.000000 -2.309062 0.000000 0.000000 2.309062 0.000000 0.000000 -0.000000 0.000000 0.000000 -0.000000 90.000000 0.000000 -2.309062 0.000000 0.000000 2.309062 0.000000 0.000000 8.520406 0.000000 0.000000 1.905762 0.000000 -0.000000 -4.658285 0.000000 0.000000 -0.000000 0.000000 0.000000 8.520406 0.000000 0.000000 1.905762 0.000000 -0.000000 -4.658285 0.000000 0.000000 -0.000000 0.000000
-42.534068 57.842317 12.141221 177.425581 -50.830702 -3.646590 3.555914 20.809196 4.351092 1.815429 11.936569 2.287593 2.367332 14.917771 2.950080 1.816109 11.935837 2.291867 0.901333 13.144707 1.386218 0.994558 -11.558380 2.329738 -1.120376 2.057664 1.196643 1.761251 -13.676202 -12.799722 -32.493017 -20.672573 97.947773 -12.297245 -0.605134 -31.246299 -12.111029 -5.567729 2.416024 -6.586054 -39.777854 37.147610 90.635732 -42.427168 -143.347401 -1.872624 -5.409290 -20.945595 4.096863 -20.732771 -2.223864 -34.250864 73.478826 -38.067769 5.901494 -15.042195 11.362190 -0.010155 0.056685 0.030886 -7.176702 -18.209860 6.002658 87.735071 81.258739 87.620243 1.158010 -21.502103 -18.733508 0.000780 0.030655 0.003193
-42.531242 57.852669 12.147068 177.386841 -50.907599 -3.599867 3.568361 20.849969 4.322550 1.817524 11.925709 2.269334 2.360789 14.911259 2.917539 1.817394 11.939093 2.272557 0.883054 13.125559 1.466102 0.946070 -11.590879 2.462860 -1.182857 2.117413 1.216502 1.678479 -13.676278 -12.670329 -32.471945 -20.946781 97.886523 -12.284523 -0.604572 -31.194252 -12.149871 -5.478150 2.428363 -6.558449 -39.968275 37.259024 90.995987 -42.960030 -142.565428 -2.079092 -5.489173 -20.934207 4.115557 -20.656721 -2.221715 -34.236877 73.460616 -38.060731 5.882349 -15.043582 11.350479 -0.004611 0.067502 0.033215 -7.176957 -18.126968 5.982876 87.590193 81.234484 87.440453 1.152079 -21.484984 -18.739036 -0.004613 0.033141 0.002496
-42.526259 57.859678 12.157778 177.368308 -50.959314 -3.574812 3.577139 20.889365 4.309776 1.827508 11.887480 2.247390 2.357983 14.937958 2.923433 1.828809 11.920344 2.232768 0.842715 13.104176 1.538883 0.877902 -11.604583 2.612226 -1.260212 2.173009 1.222043 1.586901 -13.662675 -12.535392 -32.462826 -21.181154 97.820561 -12.297240 -0.606068 -31.174417 -12.196392 -5.411008 2.448384 -6.563354 -40.171178 37.315496 91.615480 -43.735729 -141.796701 -2.238218 -5.555003 -20.881113 4.128036 -20.605398 -2.224922 -34.216695 73.446727 -38.032922 5.874895 -15.036145 11.339441 -0.001644 0.074089 0.032291 -7.169067 -18.073804 5.968326 87.494219 81.223709 87.334885 1.151214 -21.475097 -18.742368 -0.004849 0.031170 0.000181
-42.518910 57.862085 12.173542 177.358807 -50.978286 -3.564974 3.583034 20.853929 4.297221 1.852038 11.886771 2.239756 2.373140 14.930200 2.897403 1.840881 11.934643 2.234360 0.773216 13.060779 1.624016 0.810212 -11.561993 2.770879 -1.324477 2.223120 1.262451 1.479839 -13.626412 -12.431585 -32.466282 -21.371331 97.755405 -12.333563 -0.612315 -31.181864 -12.247343 -5.352467 2.499044 -6.628427 -40.351783 37.328728 92.545360 -44.793235 -141.082812 -2.315034 -5.617565 -20.733506 4.118006 -20.595447 -2.213708 -34.214372 73.439194 -38.033309 5.881135 -15.030620 11.325839 -0.009660 0.068882 0.023175 -7.211418 -18.045214 5.976102 87.408467 81.211714 87.205199 1.157385 -21.470297 -18.749784 -0.010872 0.041856 -0.002025
-42.514026 57.869217 12.185285 177.342383 -51.040618 -3.527889 3.601827 20.858340 4.273579 1.855122 11.915611 2.239085 2.424973 14.889785 2.862578 1.851004 11.946950 2.238421 0.723675 13.097353 1.706906 0.696446 -11.550352 2.962618 -1.412937 2.280562 1.307468 1.389434 -13.578358 -12.327304 -32.471290 -21.515869 97.684936 -12.386134 -0.636618 -31.202372 -12.330041 -5.284423 2.520076 -6.791046 -40.485445 37.417205 93.738027 -46.096391 -140.400565 -2.338748 -5.695021 -20.465193 4.123129 -20.542173 -2.229997 -34.205781 73.442322 -38.031423 5.890688 -15.025070 11.317698 -0.006620 0.056101 0.015902 -7.235988 -17.974555 5.952933 87.236687 81.187845 86.992368 1.151445 -21.447006 -18.756449 -0.013970 0.044348 -0.004185
-42.512423 57.883337 12.190459 177.315332 -51.165235 -3.456664 3.664862 20.863287 4.245199 1.865418 11.946981 2.232839 2.439688 14.904253 2.861070 1.870446 11.947063 2.231079 0.658697 13.123968 1.798595 0.576837 -11.466489 3.163379 -1.536013 2.351505 1.319677 1.319193 -13.525556 -12.187182 -32.471449 -21.613703 97.603608 -12.446580 -0.675624 -31.222512 -12.426932 -5.252434 2.510281 -7.051386 -40.514855 37.595517 95.106896 -47.572647 -139.674915 -2.362606 -5.782021 -20.091591 4.123156 -20.437284 -2.267862 -34.181726 73.461659 -38.035687 5.904057 -15.011543 11.308866 0.000484 0.021223 0.011936 -7.274969 -17.830653 5.902229 87.066183 81.168404 86.743855 1.148425 -21.426391 -18.761168 -0.008712 0.034917 -0.005676
